<svg xmlns="http://www.w3.org/2000/svg" width="71.435" height="50" viewBox="0 0 71.435 50">
  <g id="Page-1" transform="translate(0.006 -0.005)">
    <g id="_045---Meat-Diet" data-name="045---Meat-Diet" transform="translate(-0.006 0.005)">
      <path id="Shape" d="M45.728,28.1a17.673,17.673,0,0,0-9.539-6.031,3.429,3.429,0,0,0-2.877.7,3.67,3.67,0,0,0-1.358,2.868v3.086c-7.611,1.282-13.864,4.074-17.612,7.756a15.824,15.824,0,0,0-2.208-2.812A15.207,15.207,0,0,0,6.9,30.22a3.562,3.562,0,0,0-3.583.577,3.477,3.477,0,0,0-1.229,3.381,17.676,17.676,0,0,1,.287,3.3A13.11,13.11,0,0,1,1.4,42.937a3.681,3.681,0,0,0,0,3.377,13.1,13.1,0,0,1,.965,5.448,17.656,17.656,0,0,1-.288,3.3,3.479,3.479,0,0,0,1.226,3.367,3.58,3.58,0,0,0,2.283.824A3.521,3.521,0,0,0,6.892,59a15.193,15.193,0,0,0,5.238-3.452,15.746,15.746,0,0,0,2.207-2.81c3.749,3.682,10,6.474,17.619,7.756v3.1a3.67,3.67,0,0,0,1.358,2.868,3.452,3.452,0,0,0,2.167.775,3.41,3.41,0,0,0,.708-.075,16.141,16.141,0,0,0,7.321-3.792,21.237,21.237,0,0,0,2.176-2.239C60.981,60.058,72.43,53.19,72.43,44.619S61,29.189,45.728,28.1ZM34.334,25.643a1.31,1.31,0,0,1,.476-1.018A1.056,1.056,0,0,1,35.7,24.4a14.167,14.167,0,0,1,6.583,3.558c-.268,0-.533-.011-.8-.011a58.615,58.615,0,0,0-7.143.433ZM10.442,53.886A12.84,12.84,0,0,1,6.015,56.8a1.173,1.173,0,0,1-1.19-.2,1.124,1.124,0,0,1-.4-1.087,19.762,19.762,0,0,0,.331-3.75,15.033,15.033,0,0,0-1.224-6.539,1.29,1.29,0,0,1-.007-1.19,15.031,15.031,0,0,0,1.231-6.556,19.772,19.772,0,0,0-.33-3.746,1.121,1.121,0,0,1,.4-1.092,1.162,1.162,0,0,1,1.19-.2,12.833,12.833,0,0,1,4.425,2.907,13.316,13.316,0,0,1,2.252,3.038,12.625,12.625,0,0,0-.964,1.54,15.226,15.226,0,0,0-3.3-1.225,1.191,1.191,0,0,0-.581,2.31,12.542,12.542,0,0,1,3,1.136,9.488,9.488,0,0,0,0,4.942,12.542,12.542,0,0,1-3,1.137,1.19,1.19,0,0,0,.29,2.346,1.23,1.23,0,0,0,.292-.036,15.2,15.2,0,0,0,3.3-1.226,12.583,12.583,0,0,0,.964,1.548A13.3,13.3,0,0,1,10.442,53.886Zm2.464-9.267c0-7.744,13.085-14.286,28.571-14.286A50.582,50.582,0,0,1,56.051,32.4a25.442,25.442,0,0,0-2.669,12.217,25.448,25.448,0,0,0,2.669,12.217A50.582,50.582,0,0,1,41.477,58.9C25.99,58.9,12.906,52.357,12.906,44.619ZM41.942,61.583a13.789,13.789,0,0,1-6.248,3.252,1.042,1.042,0,0,1-.883-.217,1.31,1.31,0,0,1-.476-1.018V60.863a58.617,58.617,0,0,0,7.143.423c.264,0,.524-.007.786-.011-.108.1-.212.211-.321.307Zm16.421-5.536c-1.592-2.381-2.6-6.713-2.6-11.429s1.008-9.048,2.6-11.435C65.4,35.809,70.049,40,70.049,44.619S65.4,53.421,58.363,56.048Z" transform="translate(-0.994 -17.238)" fill="#ac3b61"/>
      <path id="Shape-2" data-name="Shape" d="M55.8,36.348a1.19,1.19,0,0,0-1.683,0l-1.539,1.539-1.539-1.539a1.19,1.19,0,0,0-1.683,1.683l1.539,1.54-1.539,1.539a1.19,1.19,0,1,0,1.683,1.683l1.539-1.54,1.539,1.539A1.19,1.19,0,0,0,55.8,41.11l-1.539-1.538L55.8,38.032a1.19,1.19,0,0,0,0-1.685Z" transform="translate(8.147 -7.433)" fill="#ac3b61"/>
      <path id="Shape-3" data-name="Shape" d="M40.762,40.524a1.19,1.19,0,1,0,0-2.381,2.381,2.381,0,0,1,0-4.762,1.19,1.19,0,0,0,0-2.381,4.762,4.762,0,0,0,0,9.524Z" transform="translate(5.673 -6.872)" fill="#ac3b61"/>
      <path id="Shape-4" data-name="Shape" d="M34.762,44.143a2.381,2.381,0,0,1,0-4.762,1.19,1.19,0,0,0,0-2.381,4.762,4.762,0,0,0,0,9.524,1.19,1.19,0,0,0,0-2.381Z" transform="translate(4.53 -8.201)" fill="#ac3b61"/>
      <path id="Shape-5" data-name="Shape" d="M22.762,39.381a1.19,1.19,0,0,0,0-2.381,4.762,4.762,0,0,0,0,9.524,1.19,1.19,0,0,0,0-2.381,2.381,2.381,0,1,1,0-4.762Z" transform="translate(2.245 -8.201)" fill="#ac3b61"/>
      <path id="Shape-6" data-name="Shape" d="M40.762,52.524a1.19,1.19,0,0,0,0-2.381,2.381,2.381,0,0,1,0-4.762,1.19,1.19,0,0,0,0-2.381,4.762,4.762,0,1,0,0,9.524Z" transform="translate(5.673 -13.033)" fill="#ac3b61"/>
      <path id="Shape-7" data-name="Shape" d="M28.762,33.381a1.19,1.19,0,0,0,0-2.381,4.762,4.762,0,0,0,0,9.524,1.19,1.19,0,1,0,0-2.381,2.381,2.381,0,0,1,0-4.762Z" transform="translate(3.388 -6.872)" fill="#ac3b61"/>
      <path id="Shape-8" data-name="Shape" d="M28.762,45.381a1.19,1.19,0,1,0,0-2.381,4.762,4.762,0,1,0,0,9.524,1.19,1.19,0,0,0,0-2.381,2.381,2.381,0,0,1,0-4.762Z" transform="translate(3.388 -13.033)" fill="#ac3b61"/>
      <path id="Shape-9" data-name="Shape" d="M67.065,4.761a5.365,5.365,0,0,0-4.357,2.25,3.442,3.442,0,0,1-2.835,1.321H53.363A64.894,64.894,0,0,1,31.212,3.984c-.8-.289-1.587-.6-2.375-.9A40.731,40.731,0,0,0,21.159.7C15.234-.321,9.089-.9,4.723,4.038A15.848,15.848,0,0,0,1.032,14.31a15.806,15.806,0,0,0,3.69,10.219A12.364,12.364,0,0,0,14.6,28.563a39.368,39.368,0,0,0,6.556-.69,40.776,40.776,0,0,0,7.674-2.388c.788-.3,1.577-.61,2.375-.9a64.894,64.894,0,0,1,22.155-4.349h6.511a3.438,3.438,0,0,1,2.833,1.321,5.369,5.369,0,0,0,4.358,2.25A5.444,5.444,0,0,0,71.9,20.728a5.219,5.219,0,0,0,.524-2.276,5.377,5.377,0,0,0-1.169-3.333,1.287,1.287,0,0,1,0-1.655,5.383,5.383,0,0,0,1.169-3.345A5.6,5.6,0,0,0,70.7,6.206a5.357,5.357,0,0,0-2.575-1.338,5.244,5.244,0,0,0-1.056-.107ZM30.4,22.347c-.814.3-1.619.606-2.424.917a38.372,38.372,0,0,1-7.221,2.262c-5.476.938-10.7,1.449-14.255-2.576a13.411,13.411,0,0,1-3.1-8.64,13.452,13.452,0,0,1,3.1-8.69C10.062,1.594,15.28,2.1,20.756,3.043A38.322,38.322,0,0,1,27.981,5.3c.8.311,1.61.62,2.424.917a67.952,67.952,0,0,0,22.179,4.47H52.6a6.548,6.548,0,0,1,.773,3.593A6.548,6.548,0,0,1,52.6,17.87h-.019A67.952,67.952,0,0,0,30.4,22.347Zm36.667-.919a2.976,2.976,0,0,1-2.42-1.252,5.819,5.819,0,0,0-4.771-2.319H55.231a11.449,11.449,0,0,0,.525-3.571,11.449,11.449,0,0,0-.521-3.571h4.643A5.823,5.823,0,0,0,64.65,8.394a2.969,2.969,0,0,1,5.369,1.35,2.143,2.143,0,0,1,.023.374,2.944,2.944,0,0,1-.649,1.854,3.69,3.69,0,0,0,0,4.626,2.944,2.944,0,0,1,.649,1.854,2.262,2.262,0,0,1-.036.427,2.982,2.982,0,0,1-2.94,2.549Z" transform="translate(-0.987 -0.005)" fill="#ac3b61"/>
      <path id="Shape-10" data-name="Shape" d="M10.709,4.346A6.723,6.723,0,0,0,7.53,6.377a11.057,11.057,0,0,0-2.5,7.06A1.19,1.19,0,0,0,6.185,14.66h.035A1.19,1.19,0,0,0,7.41,13.5a8.71,8.71,0,0,1,1.9-5.548A4.356,4.356,0,0,1,11.4,6.624a1.19,1.19,0,1,0-.687-2.279Z" transform="translate(-0.226 0.81)" fill="#ac3b61"/>
      <ellipse id="Oval" cx="0.745" cy="1.489" rx="0.745" ry="1.489" transform="translate(14.893 4.468)" fill="#ac3b61"/>
    </g>
  </g>
</svg>
