<svg id="interface_2_" data-name="interface (2)" xmlns="http://www.w3.org/2000/svg" width="70" height="70" viewBox="0 0 70 70">
  <g id="Group_36" data-name="Group 36">
    <g id="Group_35" data-name="Group 35">
      <path id="Path_49" data-name="Path 49" d="M35,0A35,35,0,1,0,70,35,34.98,34.98,0,0,0,35,0Zm0,65.333A30.333,30.333,0,1,1,65.333,35,30.368,30.368,0,0,1,35,65.333Z" fill="#ac3b61"/>
    </g>
  </g>
  <g id="Group_38" data-name="Group 38" transform="translate(16.897 16.897)">
    <g id="Group_37" data-name="Group 37">
      <path id="Path_50" data-name="Path 50" d="M157.461,139.358H144.025V125.921a2.333,2.333,0,0,0-4.667,0v13.436H125.921a2.333,2.333,0,1,0,0,4.667h13.436v13.436a2.333,2.333,0,1,0,4.667,0V144.025h13.436a2.333,2.333,0,1,0,0-4.667Z" transform="translate(-123.588 -123.588)" fill="#ac3b61"/>
    </g>
  </g>
</svg>
