<svg xmlns="http://www.w3.org/2000/svg" width="70" height="70" viewBox="0 0 70 70">
  <g id="Group_34" data-name="Group 34" transform="translate(0 0)">
    <path id="Path_43" data-name="Path 43" d="M37.2,70H32.8a6.451,6.451,0,0,1-6.444-6.444V62.07a28.259,28.259,0,0,1-4.388-1.822L20.918,61.3a6.444,6.444,0,0,1-9.114,0L8.7,58.2a6.444,6.444,0,0,1,0-9.114l1.052-1.052A28.262,28.262,0,0,1,7.93,43.641H6.444A6.451,6.451,0,0,1,0,37.2V32.8a6.451,6.451,0,0,1,6.444-6.444H7.93a28.267,28.267,0,0,1,1.822-4.388L8.7,20.918a6.444,6.444,0,0,1,0-9.114L11.8,8.7a6.443,6.443,0,0,1,9.114,0l1.052,1.052A28.286,28.286,0,0,1,26.359,7.93V6.444A6.451,6.451,0,0,1,32.8,0H37.2a6.451,6.451,0,0,1,6.444,6.444V7.93a28.259,28.259,0,0,1,4.388,1.822L49.082,8.7a6.444,6.444,0,0,1,9.114,0L61.3,11.8a6.444,6.444,0,0,1,0,9.114l-1.052,1.052a28.261,28.261,0,0,1,1.822,4.388h1.486A6.451,6.451,0,0,1,70,32.8V37.2a6.451,6.451,0,0,1-6.444,6.444H62.07a28.266,28.266,0,0,1-1.822,4.388L61.3,49.082a6.444,6.444,0,0,1,0,9.114L58.2,61.3a6.443,6.443,0,0,1-9.114,0l-1.052-1.052a28.286,28.286,0,0,1-4.388,1.822v1.486A6.451,6.451,0,0,1,37.2,70ZM22.657,55.941a24.174,24.174,0,0,0,6.266,2.6,2.051,2.051,0,0,1,1.538,1.986v3.028A2.345,2.345,0,0,0,32.8,65.9H37.2a2.345,2.345,0,0,0,2.343-2.342V60.528a2.051,2.051,0,0,1,1.538-1.986,24.174,24.174,0,0,0,6.266-2.6,2.051,2.051,0,0,1,2.494.315L51.983,58.4a2.342,2.342,0,0,0,3.312,0L58.4,55.3a2.342,2.342,0,0,0,0-3.312l-2.146-2.146a2.051,2.051,0,0,1-.315-2.494,24.169,24.169,0,0,0,2.6-6.266,2.051,2.051,0,0,1,1.986-1.538h3.028A2.345,2.345,0,0,0,65.9,37.2V32.8a2.345,2.345,0,0,0-2.343-2.342H60.528a2.051,2.051,0,0,1-1.986-1.538,24.174,24.174,0,0,0-2.6-6.266,2.051,2.051,0,0,1,.315-2.494L58.4,18.018a2.342,2.342,0,0,0,0-3.312L55.3,11.6a2.342,2.342,0,0,0-3.312,0l-2.146,2.146a2.051,2.051,0,0,1-2.494.315,24.174,24.174,0,0,0-6.266-2.6,2.051,2.051,0,0,1-1.538-1.986V6.444A2.345,2.345,0,0,0,37.2,4.1H32.8a2.345,2.345,0,0,0-2.343,2.342V9.472a2.051,2.051,0,0,1-1.538,1.986,24.174,24.174,0,0,0-6.266,2.6,2.051,2.051,0,0,1-2.494-.315L18.018,11.6a2.342,2.342,0,0,0-3.312,0L11.6,14.7a2.342,2.342,0,0,0,0,3.312l2.146,2.146a2.051,2.051,0,0,1,.315,2.494,24.169,24.169,0,0,0-2.6,6.266,2.051,2.051,0,0,1-1.986,1.538H6.444A2.345,2.345,0,0,0,4.1,32.8V37.2a2.345,2.345,0,0,0,2.343,2.342H9.472a2.051,2.051,0,0,1,1.986,1.538,24.174,24.174,0,0,0,2.6,6.266,2.051,2.051,0,0,1-.315,2.494L11.6,51.982a2.342,2.342,0,0,0,0,3.312L14.7,58.4a2.342,2.342,0,0,0,3.312,0l2.146-2.146a2.06,2.06,0,0,1,2.494-.315Z" transform="translate(0 0)" fill="#123c69"/>
    <path id="Path_44" data-name="Path 44" d="M159.83,175.061a15.23,15.23,0,1,1,15.23-15.23A15.248,15.248,0,0,1,159.83,175.061Zm0-26.359a11.129,11.129,0,1,0,11.129,11.129A11.141,11.141,0,0,0,159.83,148.7Z" transform="translate(-124.83 -124.83)" fill="#123c69"/>
  </g>
</svg>
