<svg xmlns="http://www.w3.org/2000/svg" width="70" height="70.684" viewBox="0 0 70 70.684">
  <path id="commerce-and-shopping" d="M68.327,13.412a6.869,6.869,0,0,0-5.26-2.322H12.757l-.506-3.8C11.7,3.2,8.857,0,5.768,0h-3.7a2.071,2.071,0,0,0,0,4.142h3.7c.664,0,2.071,1.4,2.377,3.7L14.072,52.3a8.373,8.373,0,0,0,2.835,5.166,8.558,8.558,0,0,0,3.974,1.978,7.617,7.617,0,1,0,13.471.15H45.2a7.616,7.616,0,1,0,13.548,0h5.426a2.071,2.071,0,0,0,0-4.142H22.4a4.445,4.445,0,0,1-4.226-3.7L17.744,48.5H58.631a8.6,8.6,0,0,0,8.331-7.294l2.97-22.277a6.87,6.87,0,0,0-1.605-5.52ZM31.053,63.068a3.475,3.475,0,1,1-3.475-3.474A3.478,3.478,0,0,1,31.053,63.068Zm24.4,0a3.475,3.475,0,1,1-3.475-3.474A3.478,3.478,0,0,1,55.452,63.068ZM65.211,16.14a2.783,2.783,0,0,1,.616,2.244l-1.245,9.342H50.492l.833-12.494H63.067a2.785,2.785,0,0,1,2.143.908ZM35.8,44.361l-.833-12.494h11.1l-.833,12.494ZM34.693,27.726,33.86,15.232H47.173l-.833,12.494ZM29.71,15.232l.833,12.494H14.974L13.308,15.232ZM15.526,31.867H30.818l.833,12.494H17.192ZM58.631,44.361H49.382l.833-12.494H64.03l-1.172,8.794a4.445,4.445,0,0,1-4.226,3.7Zm0,0" transform="translate(0)" fill="#ac3b61"/>
</svg>
