<svg xmlns="http://www.w3.org/2000/svg" width="50" height="50" viewBox="0 0 50 50">
  <g id="spray" transform="translate(0 0)">
    <path id="Path_18" data-name="Path 18" d="M122.121,171.023c1.641,3,6.289.39,4.544-2.58a43.645,43.645,0,0,0-6.044-8.009,2.639,2.639,0,0,0-4.414,1.111,2.6,2.6,0,0,0,.687,2.6,28.94,28.94,0,0,1,5.228,6.883Zm-4.507-9.073a1.162,1.162,0,0,1,1.947-.5,42.173,42.173,0,0,1,5.841,7.74,1.148,1.148,0,0,1-2,1.135,30.405,30.405,0,0,0-5.492-7.231A1.142,1.142,0,0,1,117.614,161.95Z" transform="translate(-104.765 -144.051)" fill="#ac3b61"/>
    <path id="Path_19" data-name="Path 19" d="M36.153,149.2a3.182,3.182,0,0,0-3.178,3.178v25.144a3.182,3.182,0,0,0,3.178,3.178H53.82a3.21,3.21,0,0,0,3.162-3.507,50.762,50.762,0,0,0-2.136-9.552,3.167,3.167,0,0,0-3.025-2.2h-4.51a1.715,1.715,0,0,1-1.406-.733l-6.266-8.987a1.7,1.7,0,0,1-.308-.98V152.38A3.182,3.182,0,0,0,36.153,149.2ZM44.7,165.547a3.18,3.18,0,0,0,2.607,1.361h4.51a1.706,1.706,0,0,1,1.63,1.186,49.251,49.251,0,0,1,2.073,9.258,1.731,1.731,0,0,1-1.705,1.887H36.153a1.715,1.715,0,0,1-1.714-1.714V152.38a1.715,1.715,0,0,1,3.427,0v2.362a3.163,3.163,0,0,0,.571,1.818Z" transform="translate(-29.755 -134.631)" fill="#ac3b61"/>
    <path id="Path_20" data-name="Path 20" d="M49.268,45.9H48.6a3.787,3.787,0,0,0,.288-1.452A3.685,3.685,0,0,0,45.7,40.8V33.691a.733.733,0,0,0-1.465,0V35.3H29.59l-.053,0a46.727,46.727,0,0,0-3.56-9.651v-.411H44.238V29.59a.733.733,0,0,0,1.465,0V20.72a4.988,4.988,0,0,0-2.267-4.189l-4.356-2.846V9.261a2.428,2.428,0,0,0-2.425-2.425h-3.1a2.428,2.428,0,0,0-2.425,2.425v4.423l-4.356,2.846a4.988,4.988,0,0,0-2.267,4.189v2.232a46.511,46.511,0,0,0-9-11.058,6.017,6.017,0,0,0-2.014-1.2v-3.1a.732.732,0,0,0-.732-.732h-.71V2.257A2.26,2.26,0,0,0,9.8,0H5.39A2.26,2.26,0,0,0,3.133,2.257V6.863h-.71a.732.732,0,0,0-.732.732v3.248A3.487,3.487,0,0,0,0,13.83v4.627a.733.733,0,0,0,1.465,0V13.83a2.024,2.024,0,0,1,2.021-2.021H11.48a4.551,4.551,0,0,1,3.052,1.173A45.185,45.185,0,0,1,29.44,46.491c.03,1.025-.474,2.045-1.65,2.045H3.115a1.652,1.652,0,0,1-1.65-1.65V22.559a.733.733,0,0,0-1.465,0V46.885A3.118,3.118,0,0,0,3.115,50H35.059a.733.733,0,0,0,0-1.465H33.3V47.363H48.535v1.172h-9.18a.733.733,0,0,0,0,1.465h9.912A.732.732,0,0,0,50,49.268V46.631A.732.732,0,0,0,49.268,45.9ZM4.6,2.257a.793.793,0,0,1,.792-.792H9.8a.793.793,0,0,1,.792.792V6.763H4.6ZM3.486,10.344H3.156V8.327h8.879v2.016H3.486Zm43.938,34.1a2.284,2.284,0,0,1-.479,1.4H34.8a2.491,2.491,0,0,1,3.737-2.528.732.732,0,0,0,1.108-.6,1.52,1.52,0,0,1,2.986-.352.732.732,0,0,0,1.172.371,2.216,2.216,0,0,1,3.624,1.71ZM32.6,9.261a.961.961,0,0,1,.96-.96h3.1a.961.961,0,0,1,.96.96v4.118H32.6Zm-5.019,8.5,4.458-2.913h6.139l4.458,2.913a3.528,3.528,0,0,1,1.6,2.963v3.06H25.977V20.72A3.528,3.528,0,0,1,27.58,17.757ZM32.568,45.9a.732.732,0,0,0-.732.732v1.9H30.43a3.1,3.1,0,0,0,.475-1.65v-.395a46.458,46.458,0,0,0-1.03-9.723H44.238V40.9a3.7,3.7,0,0,0-.593.217,2.987,2.987,0,0,0-5.262.553A3.956,3.956,0,0,0,33.3,45.459a4.009,4.009,0,0,0,.025.439Z" transform="translate(0)" fill="#ac3b61"/>
  </g>
</svg>
