<svg id="Dairy_Product" data-name="Dairy Product" xmlns="http://www.w3.org/2000/svg" width="49.999" height="50" viewBox="0 0 49.999 50">
  <g id="Outline">
    <path id="Path_26" data-name="Path 26" d="M290.344,409.595a.781.781,0,0,0,.781-.781c0-1.495-3.125-.76-3.125,1.562s3.125,3.062,3.125,1.562a.781.781,0,0,0-.781-.781.781.781,0,0,1,0-1.562Z" transform="translate(-259.875 -368.189)" fill="#ac3b61"/>
    <path id="Path_27" data-name="Path 27" d="M268.687,354.344a2.344,2.344,0,1,0-2.344,2.344A2.344,2.344,0,0,0,268.687,354.344Zm-3.125,0a.781.781,0,1,1,.781.781.781.781,0,0,1-.781-.781Z" transform="translate(-238.219 -317.626)" fill="#ac3b61"/>
    <path id="Path_28" data-name="Path 28" d="M226.344,432a2.344,2.344,0,1,0,2.344,2.344A2.344,2.344,0,0,0,226.344,432Zm0,3.125a.781.781,0,1,1,.781-.781A.781.781,0,0,1,226.344,435.125Z" transform="translate(-202.125 -389.813)" fill="#ac3b61"/>
    <path id="Path_29" data-name="Path 29" d="M190.268,235.256a12.843,12.843,0,0,1-12.568-2.532l.6-1.567a3.182,3.182,0,0,0,1.846-4.795L182.213,221c3.373,1.042,5.381-4.359,2.25-5.845l1.693-4.4,2.3,5.969a.781.781,0,0,0,1.458-.561l-2.618-6.8h3.794l.88,2.286c-2.352,1.966-.717,6.372,2.834,5.412a.781.781,0,1,0-.407-1.508c-2.067.558-2.591-2.163-1.122-2.9a.781.781,0,0,0,.378-.979l-1.3-3.371a.781.781,0,0,0-.729-.5c-5.614,0-5.934-.184-6.2.5-2.694,7.282-3,7.158-2.669,7.735a.781.781,0,0,0,.551.383c1.69.278,1.274,2.3.367,2.935a1.237,1.237,0,0,1-1.472-.073.781.781,0,0,0-1.15.378l-2.524,6.557a.781.781,0,0,0,.169.825,1.592,1.592,0,0,1-1.009,2.629.781.781,0,0,0-.682.5l-.955,2.481a.781.781,0,0,0,.184.841,14.309,14.309,0,0,0,14.532,3.241.781.781,0,1,0-.5-1.48Z" transform="translate(-158.813 -187.493)" fill="#ac3b61"/>
    <path id="Path_30" data-name="Path 30" d="M337.968,320H320.781a.781.781,0,0,0,0,1.562h.85l1.5,16.477a.781.781,0,0,0,.777.711h10.937a.781.781,0,0,0,.778-.711l.568-6.257a.781.781,0,1,0-1.556-.141l-.5,5.546h-9.51l-1.42-15.625h12.351l-.35,3.856a.781.781,0,1,0,1.556.141l.363-4h.849a.781.781,0,1,0,0-1.562Z" transform="translate(-288.751 -288.751)" fill="#ac3b61"/>
    <path id="Path_31" data-name="Path 31" d="M274.234,18.734a.781.781,0,0,0,.922-.609,7.031,7.031,0,0,1,2.671-4.219.778.778,0,0,0,.084-.073c1.037-1.038,1.19-2.983-.813-4.658a1.125,1.125,0,0,1-.391-1.111c.025-.069.09-.254.537-.253,9.461.18,9.936-.277,10.134.265a1.093,1.093,0,0,1-.384,1.1,3.757,3.757,0,0,0-1.553,2.667,2.718,2.718,0,0,0,.824,2.063,7.066,7.066,0,0,1,2.812,5.625.781.781,0,1,0,1.562,0,8.637,8.637,0,0,0-3.373-6.826c-.638-.792-.047-1.681.73-2.33,1.414-1.182,1.331-3.547-.482-4.04V.781A.781.781,0,0,0,286.733,0h-9.375a.781.781,0,0,0-.781.781V6.334c-1.831.488-1.9,2.856-.482,4.041.787.658,1.363,1.544.73,2.33a8.592,8.592,0,0,0-3.2,5.107A.781.781,0,0,0,274.234,18.734Zm3.906-17.171h7.812V3.125h-5.469a.781.781,0,1,0,0,1.562h5.469V6.25h-7.812Z" transform="translate(-246.89)" fill="#ac3b61"/>
    <path id="Path_32" data-name="Path 32" d="M37.469,267.721a.781.781,0,0,0-.781-.781,3.128,3.128,0,0,1-3.125-3.125c0-1.189,1.725-3.884,3.125-5.754,1.4,1.869,3.125,4.564,3.125,5.754a.781.781,0,1,0,1.562,0c0-2.363-3.66-7-4.078-7.519a.781.781,0,0,0-1.219,0c-.417.521-4.078,5.156-4.078,7.519C32,268.122,37.469,269.607,37.469,267.721Z" transform="translate(-28.875 -231.003)" fill="#ac3b61"/>
    <path id="Path_33" data-name="Path 33" d="M17.968,48.437H15.625V13.5l3.916-6.526L23.47,13.5v7.6a.781.781,0,0,0,1.562,0V13.281c0-.4.038-.079-4.72-8.057V.781A.781.781,0,0,0,19.531,0H5.469a.781.781,0,0,0-.781.781V5.252L4.062,6.294a.781.781,0,1,0,1.34.8l.509-.848h12.24L14.4,12.5H11.719a.781.781,0,1,0,0,1.562h2.344v6.25H1.562v-6.25H8.594a.781.781,0,0,0,0-1.562H2.161l.027-.044a.781.781,0,1,0-1.34-.8C.073,12.945,0,12.993,0,13.281V49.218A.781.781,0,0,0,.781,50H17.968a.781.781,0,1,0,0-1.562ZM6.25,4.687V1.562h12.5V4.687Zm7.812,43.749H1.562v-6.25h12.5Zm0-7.812H1.562V21.875h12.5Z" fill="#ac3b61"/>
    <circle id="Ellipse_3" data-name="Ellipse 3" cx="0.781" cy="0.781" r="0.781" transform="translate(2.344 8.594)" fill="#ac3b61"/>
    <circle id="Ellipse_4" data-name="Ellipse 4" cx="0.781" cy="0.781" r="0.781" transform="translate(10.156 35.156)" fill="#ac3b61"/>
    <circle id="Ellipse_5" data-name="Ellipse 5" cx="0.781" cy="0.781" r="0.781" transform="translate(42.187 21.875)" fill="#ac3b61"/>
    <circle id="Ellipse_6" data-name="Ellipse 6" cx="0.781" cy="0.781" r="0.781" transform="translate(46.093 39.062)" fill="#ac3b61"/>
    <path id="Path_34" data-name="Path 34" d="M432.781,256a.781.781,0,0,0-.781.781v3.125a.781.781,0,1,0,1.562,0v-3.125A.781.781,0,0,0,432.781,256Z" transform="translate(-389.813 -231)" fill="#ac3b61"/>
  </g>
</svg>
