<svg xmlns="http://www.w3.org/2000/svg" width="50" height="50" viewBox="0 0 50 50">
  <g id="food-and-restaurant_2_" data-name="food-and-restaurant (2)" transform="translate(0 0)">
    <path id="Path_21" data-name="Path 21" d="M12.295,15.186a.833.833,0,0,1-.628-.8V.833A.833.833,0,0,0,10.833,0h-5A.833.833,0,0,0,5,.833V14.384a.834.834,0,0,1-.629.8A5.833,5.833,0,0,0,0,20.833V49.166A.833.833,0,0,0,.833,50h15a.833.833,0,0,0,.833-.833V20.833a5.833,5.833,0,0,0-4.372-5.647ZM6.666,1.666H10V3.333H6.666ZM15,39.166H1.666V27.5H15ZM1.666,48.333v-7.5H15v7.5ZM15,25.833H1.666v-5A4.166,4.166,0,0,1,4.788,16.8a2.5,2.5,0,0,0,1.878-2.414V5H10v9.384A2.5,2.5,0,0,0,11.877,16.8,4.166,4.166,0,0,1,15,20.833Zm0,0" fill="#ac3b61"/>
    <path id="Path_22" data-name="Path 22" d="M180.732,18.634a12.489,12.489,0,0,1-1.9-6.625V.834A.833.833,0,0,0,178,0h-5a.833.833,0,0,0-.833.833V12.01a12.487,12.487,0,0,1-1.9,6.622l-.116.184A14.154,14.154,0,0,0,168,26.324V49.167a.833.833,0,0,0,.833.833h13.333a.833.833,0,0,0,.833-.833V26.324a14.161,14.161,0,0,0-2.155-7.511Zm-6.9-16.967h3.333V3.334h-3.333Zm7.5,46.667H169.666V26.324a12.486,12.486,0,0,1,1.9-6.622l.116-.184a14.155,14.155,0,0,0,2.153-7.509V5h3.333V12.01a14.161,14.161,0,0,0,2.155,7.511l.113.179a12.489,12.489,0,0,1,1.9,6.625Zm0,0" transform="translate(-150.5 -0.001)" fill="#ac3b61"/>
    <path id="Path_23" data-name="Path 23" d="M204.167,280a4.167,4.167,0,1,0,4.167,4.167A4.167,4.167,0,0,0,204.167,280Zm0,6.667a2.5,2.5,0,1,1,2.5-2.5A2.5,2.5,0,0,1,204.167,286.667Zm0,0" transform="translate(-179.167 -250.834)" fill="#ac3b61"/>
    <path id="Path_24" data-name="Path 24" d="M331.843,8l-.009,0a.393.393,0,0,1-.167-.321V.833A.833.833,0,0,0,330.834,0h-5A.833.833,0,0,0,325,.833V7.677a.393.393,0,0,1-.167.321l-.01.006A10.81,10.81,0,0,0,320,17.018V49.167a.833.833,0,0,0,.833.833h15a.833.833,0,0,0,.833-.833V17.018A10.811,10.811,0,0,0,331.843,8Zm-5.176-6.337H330V3.333h-3.333ZM335,48.333H321.667V17.018A9.145,9.145,0,0,1,325.735,9.4l.015-.01a2.057,2.057,0,0,0,.917-1.713V5H330V7.677a2.057,2.057,0,0,0,.917,1.713l.015.009A9.15,9.15,0,0,1,335,17.018Zm0,0" transform="translate(-286.667 0)" fill="#ac3b61"/>
    <path id="Path_25" data-name="Path 25" d="M352.833,208a.833.833,0,0,0-.833.833V230.5a.833.833,0,0,0,.833.833h8.333A.833.833,0,0,0,362,230.5V208.833a.833.833,0,0,0-.833-.833Zm7.5,21.667h-6.667v-20h6.667Zm0,0" transform="translate(-315.334 -186.334)" fill="#ac3b61"/>
  </g>
</svg>
