<svg xmlns="http://www.w3.org/2000/svg" width="55.839" height="49.847" viewBox="0 0 55.839 49.847">
  <g id="food-and-restaurant" transform="translate(0 -32.339)">
    <g id="Group_17" data-name="Group 17" transform="translate(19.06 46.574)">
      <g id="Group_16" data-name="Group 16" transform="translate(0 0)">
        <path id="Path_12" data-name="Path 12" d="M162.314,192.2a2.827,2.827,0,0,0-4.912,1.859.908.908,0,0,0,.893.923h.016a.908.908,0,0,0,.908-.893,1.008,1.008,0,0,1,1.027-.992,1,1,0,0,1,.727.327.908.908,0,1,0,1.341-1.225Z" transform="translate(-157.402 -191.28)" fill="#ac3b61"/>
      </g>
    </g>
    <g id="Group_19" data-name="Group 19" transform="translate(23.927 48.875)">
      <g id="Group_18" data-name="Group 18">
        <path id="Path_13" data-name="Path 13" d="M202.47,211.86a2.594,2.594,0,0,0-4.82.115.908.908,0,1,0,1.7.632.781.781,0,0,1,1-.46.767.767,0,0,1,.444.424.908.908,0,0,0,1.672-.711Z" transform="translate(-197.594 -210.283)" fill="#ac3b61"/>
      </g>
    </g>
    <g id="Group_21" data-name="Group 21" transform="translate(32.252 42.144)">
      <g id="Group_20" data-name="Group 20">
        <path id="Path_14" data-name="Path 14" d="M268.745,154.959a.908.908,0,0,0-1.284,0l-.856.858a.908.908,0,0,0,1.286,1.283l.856-.858A.908.908,0,0,0,268.745,154.959Z" transform="translate(-266.339 -154.693)" fill="#ac3b61"/>
      </g>
    </g>
    <g id="Group_23" data-name="Group 23" transform="translate(26.889 54.134)">
      <g id="Group_22" data-name="Group 22">
        <path id="Path_15" data-name="Path 15" d="M224.168,253.709h-1.21a.908.908,0,1,0,0,1.816h1.21a.908.908,0,1,0,0-1.816Z" transform="translate(-222.049 -253.709)" fill="#ac3b61"/>
      </g>
    </g>
    <g id="Group_25" data-name="Group 25" transform="translate(36.17 54.134)">
      <g id="Group_24" data-name="Group 24">
        <path id="Path_16" data-name="Path 16" d="M300.811,253.709H299.6a.908.908,0,1,0,0,1.816h1.211a.908.908,0,1,0,0-1.816Z" transform="translate(-298.692 -253.709)" fill="#ac3b61"/>
      </g>
    </g>
    <g id="Group_27" data-name="Group 27" transform="translate(0 32.339)">
      <g id="Group_26" data-name="Group 26" transform="translate(0 0)">
        <path id="Path_17" data-name="Path 17" d="M55.812,66.006,55.6,64.861A1.549,1.549,0,0,0,54.074,63.6a1.566,1.566,0,0,0-.282.026l-4.336.794,1.964-1.308a1.536,1.536,0,0,0,.488-2.04l-.594-1.049a1.549,1.549,0,0,0-1.553-.772,20.543,20.543,0,0,0,.331-3.681,1.363,1.363,0,0,0-.813-1.244,6.228,6.228,0,0,0,.05-4.729.991.991,0,0,0-.555-.555,6.242,6.242,0,0,0-2.312-.443q-.152,0-.3.007a4.314,4.314,0,0,0-5.2-4,6.692,6.692,0,0,0-.381-3.587,1,1,0,0,0-.565-.568,6.744,6.744,0,0,0-6.076.555,8.056,8.056,0,0,0-1.926-3.07,1.392,1.392,0,0,0-1.966,0l-3.96,3.955a4.12,4.12,0,0,0-2.744-1.041,4.146,4.146,0,0,0-2.953,1.235,4.125,4.125,0,0,0-3.05-.217V38.822a3.854,3.854,0,0,0-3.787-3.845V33.248a1.361,1.361,0,0,0,1.131-1.337V28a1.362,1.362,0,0,0-1.363-1.358H6.669A1.362,1.362,0,0,0,5.306,28v3.916a1.361,1.361,0,0,0,1.131,1.337v1.728A3.854,3.854,0,0,0,2.65,38.822V62.608A7.773,7.773,0,0,0,0,68.395c0,4.46,3.929,8.089,8.758,8.089l32.738-.01a3.754,3.754,0,0,0,2.883-1.342,3.7,3.7,0,0,0,.822-2.971l6.539,1.171a1.569,1.569,0,0,0,.275.024A1.549,1.549,0,0,0,53.55,72.04l.177-1.184a1.529,1.529,0,0,0-.008-.508,1.546,1.546,0,0,0-1.179-1.224l-2.3-.527,4.332-.793a1.542,1.542,0,0,0,1-.644A1.526,1.526,0,0,0,55.812,66.006ZM46.462,50.228a4.6,4.6,0,0,1,1.442.231,4.6,4.6,0,0,1-.391,3.748h-2.2l.7-.7a.816.816,0,0,0-1.158-1.151l-.372.372a3.777,3.777,0,0,0-.879-1.5A4.584,4.584,0,0,1,46.462,50.228Zm-4.613-4.083a2.681,2.681,0,0,1,2.679,2.677c0,.027,0,.054,0,.082a6.219,6.219,0,0,0-2.335,1.38c-.108-.041-.217-.079-.33-.11a3.784,3.784,0,0,0-2.261-2.8A2.677,2.677,0,0,1,41.849,46.144ZM37.525,41.6a5.084,5.084,0,0,1,1.628.267,5.089,5.089,0,0,1-.2,3.764A4.329,4.329,0,0,0,37.9,47.083a3.873,3.873,0,0,0-.436.05,3.826,3.826,0,0,0-1.739.79,4.314,4.314,0,0,0-.619-.856l1.876-1.873a.816.816,0,0,0-1.158-1.151l-2.05,2.047a4.287,4.287,0,0,0-1.255-.371,5.1,5.1,0,0,1,5-4.114Zm-6.268,12.6h-.709a.818.818,0,0,0-1.522,0h-.834a.816.816,0,0,0-1.276-1l-.771.77a.811.811,0,0,0-.162.232H24.32a6.43,6.43,0,0,1-1.049-3.289H36.247A6.43,6.43,0,0,1,35.2,54.206H33.466a.811.811,0,0,0-.162-.232l-.771-.77a.816.816,0,0,0-1.276,1Zm-1.9-4.919a2.679,2.679,0,0,1,5.172,0Zm1.673-10.021a6.438,6.438,0,0,1,1.545,2.878,6.712,6.712,0,0,0-1.038,1.483.815.815,0,0,0-.426-.12h-1.09a.815.815,0,1,0,0,1.63h.956a6.726,6.726,0,0,0-.126.682,4.287,4.287,0,0,0-.925.36,4.127,4.127,0,0,0-2.518-1.916v-.007a4.115,4.115,0,0,0-.329-1.044ZM16.242,46.62a2.453,2.453,0,0,1-.108-.408,2.488,2.488,0,0,1,2.032-2.87A2.533,2.533,0,0,1,18.6,43.3a2.478,2.478,0,0,1,1.489.5.82.82,0,0,0,1.171-.2,2.477,2.477,0,0,1,1.654-1.078,2.533,2.533,0,0,1,.432-.037,2.476,2.476,0,0,1,2.485,2.477.816.816,0,0,0,.746.81,2.489,2.489,0,0,1,2.054,1.461,4.29,4.29,0,0,0-.945,2.058H23.019a1.391,1.391,0,0,0-1.285.862,6.262,6.262,0,0,0-5.816-.629.988.988,0,0,0-.334.219.975.975,0,0,0-.22.334,6.226,6.226,0,0,0-.382,1.449,2.475,2.475,0,0,1,.832-3.887A.814.814,0,0,0,16.242,46.62Zm2.438,7.363.223.223H16.939a4.6,4.6,0,0,1-.15-3.268,4.607,4.607,0,0,1,5.032,1.483,8.032,8.032,0,0,0,.626,1.785H21.214l-1.376-1.374a.817.817,0,0,0-1.158,1.151Zm-3.483.223H12.281a2.68,2.68,0,0,1,1.268-1.859,4.109,4.109,0,0,0,1.492,1.232A6.286,6.286,0,0,0,15.2,54.206ZM6.942,28.267h6.106V31.64H6.942Zm4.976,5v1.705H8.073V33.27ZM4.286,42.127H9.6a.815.815,0,1,0,0-1.63H4.286V38.822A2.22,2.22,0,0,1,6.5,36.6h6.983A2.22,2.22,0,0,1,15.7,38.822V40.5H14.178a.815.815,0,1,0,0,1.63H15.7v.723a4.1,4.1,0,0,0-1.184,3.639V46.5A4.112,4.112,0,0,0,12.79,50.59c.016.093.037.185.059.276a4.335,4.335,0,0,0-1.09.854H4.286Zm0,11.223h6.523a4.262,4.262,0,0,0-.178.856h-.138a1.365,1.365,0,0,0-1.365,1.362,20.55,20.55,0,0,0,.355,3.807c-.235-.019-.476-.029-.721-.029a7.478,7.478,0,0,0-2.654.44C5,60.221,4.7,60.838,4.631,61.265c-.117.058-.232.119-.346.182ZM14.643,63.362a3.091,3.091,0,0,1,.579.578h-.03a5.1,5.1,0,0,1-2.241-.708,5.9,5.9,0,0,1-.938-.635.82.82,0,0,0-1.058,0,5.862,5.862,0,0,1-.938.635,5.1,5.1,0,0,1-2.241.708H7.746a3.087,3.087,0,0,1,.579-.579.814.814,0,0,0-.416-1.446,3.918,3.918,0,0,1-1.539-.443,4.672,4.672,0,0,1,2.392-.5,5.114,5.114,0,0,1,2.322.453.821.821,0,0,0,.8,0,5.117,5.117,0,0,1,2.323-.453,4.672,4.672,0,0,1,2.392.5,3.916,3.916,0,0,1-1.539.443.814.814,0,0,0-.416,1.446Zm-1.636,9.919.028.151a3.7,3.7,0,0,0,.589,1.422H8.758c-3.927,0-7.122-2.9-7.122-6.459a6.4,6.4,0,0,1,3.691-5.658,3.519,3.519,0,0,0,.941.48,1.926,1.926,0,0,0-.276.806,1.324,1.324,0,0,0,.325,1,1.86,1.86,0,0,0,1.459.542,6.774,6.774,0,0,0,3.033-.912q.357-.2.675-.415.316.217.675.415a6.776,6.776,0,0,0,3.033.912h0a1.86,1.86,0,0,0,1.459-.542,1.324,1.324,0,0,0,.325-1.005,1.926,1.926,0,0,0-.276-.806,3.526,3.526,0,0,0,.941-.48,6.6,6.6,0,0,1,3.505,4.193l-5.785,2.19A3.724,3.724,0,0,0,13.007,73.281Zm30.117.806a2.119,2.119,0,0,1-1.628.757h-.859L40.1,71.959a.818.818,0,0,0-1.609.3l.481,2.589H36.159L35.8,72.895a.818.818,0,0,0-1.609.3l.308,1.655-6.546,0-.493-2.65a.818.818,0,0,0-1.609.3l.438,2.354-9.558,0h0a2.113,2.113,0,0,1-2.083-1.719l-.028-.151a2.1,2.1,0,0,1,1.327-2.34l3.215-1.217.239,1.288a.817.817,0,0,0,.8.667.832.832,0,0,0,.15-.014.815.815,0,0,0,.655-.95l-.294-1.579,4.772-1.806a.815.815,0,1,0-.581-1.524l-2.221.84a8.267,8.267,0,0,0-4.345-5.085c-.067-.427-.372-1.044-1.476-1.478a7.478,7.478,0,0,0-2.654-.44,8.327,8.327,0,0,0-1.9.211v-.492a.818.818,0,0,0-1.323-.64,18.971,18.971,0,0,1-.213-2.589H37.407a.815.815,0,1,0,0-1.63h-.335a8.043,8.043,0,0,0,.815-3.534,1.388,1.388,0,0,0-1.256-1.379,2.159,2.159,0,0,1,1.115-.556,2.214,2.214,0,0,1,.377-.033,2.158,2.158,0,0,1,2.165,2.158.816.816,0,0,0,.746.811,2.165,2.165,0,0,1,1.945,1.781,2.122,2.122,0,0,1-.006.751H42.1a.815.815,0,1,0,0,1.63h6.357a18.721,18.721,0,0,1-.574,4.372l-4.433,2.607a3.721,3.721,0,0,0-1.769-2.222A3.767,3.767,0,0,0,38.5,60.36l-9.129,3.456a.815.815,0,1,0,.581,1.524l1.2-.455.373,2.009a.817.817,0,0,0,.8.667.831.831,0,0,0,.15-.014.815.815,0,0,0,.655-.95l-.428-2.3,6.372-2.412a2.13,2.13,0,0,1,1.8.131,2.094,2.094,0,0,1,1.044,1.449l1.655,8.9A2.079,2.079,0,0,1,43.124,74.087Zm2.918-6.379a.814.814,0,0,0-.035,1.6L52.1,70.7l-.152,1.017-7.06-1.264-1.1-5.937,6.149-3.617.512.9-5.187,3.455a.815.815,0,0,0,.6,1.479l8.147-1.491.181.976Z" transform="translate(0 -26.637)" fill="#ac3b61"/>
      </g>
    </g>
  </g>
</svg>
