<svg id="food_1_" data-name="food (1)" xmlns="http://www.w3.org/2000/svg" width="50" height="50" viewBox="0 0 50 50">
  <path id="Path_35" data-name="Path 35" d="M49.266,25.665A.734.734,0,0,0,50,24.931V.734A.734.734,0,0,0,49.266,0H10.114A.734.734,0,0,0,9.38.734V25.24a3.123,3.123,0,0,0-2.911,1.276,3.127,3.127,0,0,0-4.624,2.746c0,.086,0,.171.011.256H.734A.734.734,0,0,0,0,30.252a19.979,19.979,0,0,0,1.216,6.184A16.848,16.848,0,0,0,9.38,45.955v2.307A1.74,1.74,0,0,0,11.118,50H49.266A.734.734,0,0,0,50,49.266v-21.4a.734.734,0,1,0-1.468,0V48.532H42.259V1.468h6.273V24.931a.734.734,0,0,0,.734.734Zm-20.435,22.6V45.955a16.848,16.848,0,0,0,8.164-9.519c.125-.346.236-.685.337-1.016h3.46V48.532H28.808a1.729,1.729,0,0,0,.023-.271ZM31.27,29.518a1.66,1.66,0,0,1,3.319,0Zm-19.111,0a1.659,1.659,0,1,1,3.289-.43V29.1c0,.052.008.1.008.158a1.667,1.667,0,0,1-.022.256ZM14.3,25.951a1.659,1.659,0,0,1,3.316-.084,3.14,3.14,0,0,0-1.609,1.184,3.123,3.123,0,0,0-1.692-.874,1.68,1.68,0,0,1-.015-.227Zm2.747,3.566a1.641,1.641,0,0,1-.137-.536s0,0,0-.007c0-.042,0-.085,0-.128a1.66,1.66,0,1,1,3.178.67Zm4.668,0a1.66,1.66,0,1,1,3.276,0ZM36.259,14.195a1.211,1.211,0,1,1,1.712,1.711L25.853,27.384a3.146,3.146,0,0,0-1.18-.957ZM26.482,29.518a1.66,1.66,0,0,1,3.319,0Zm9.575,0a3.126,3.126,0,0,0-5.521-2A3.133,3.133,0,0,0,28.923,26.5l9.73-9.216h2.139v16.67h-3.07a18.22,18.22,0,0,0,.49-3.7.734.734,0,0,0-.734-.734h-1.42ZM10.848,17.282H22.881a.734.734,0,1,0,0-1.468H10.848V1.468H40.792V15.814H39.7a2.679,2.679,0,0,0-4.505-2.629L32.7,15.814H25.817a.734.734,0,0,0,0,1.468h5.5L22.9,26.168a3.122,3.122,0,0,0-1.765.895,3.132,3.132,0,0,0-2.05-1.3,3.127,3.127,0,1,0-6.232.517,3.126,3.126,0,0,0-1.079.6,3.15,3.15,0,0,0-.924-1.064V17.282Zm-1.839,9.4a1.659,1.659,0,0,1,1.174,2.833H8.088c.007-.085.011-.17.011-.256a3.111,3.111,0,0,0-.531-1.742A1.652,1.652,0,0,1,9.009,26.685Zm-5.7,2.577a1.66,1.66,0,1,1,3.3.256H3.331A1.665,1.665,0,0,1,3.312,29.262Zm7.536,19V46.234h4.525a.734.734,0,0,0,0-1.468h-5.09a15.177,15.177,0,0,1-7.669-8.782,19.8,19.8,0,0,1-1.106-5H36.7a19.8,19.8,0,0,1-1.106,5,15.177,15.177,0,0,1-7.669,8.782h-9.62a.734.734,0,0,0,0,1.468h9.055v2.027a.271.271,0,0,1-.271.271H11.118a.271.271,0,0,1-.271-.271Z" fill="#ac3b61"/>
  <path id="Path_36" data-name="Path 36" d="M449.337,50.5h-2.12a.734.734,0,0,0,0,1.468h2.12a.734.734,0,0,0,0-1.468Z" transform="translate(-402.881 -45.566)" fill="#ac3b61"/>
  <path id="Path_37" data-name="Path 37" d="M449.337,79.936h-2.12a.734.734,0,1,0,0,1.468h2.12a.734.734,0,1,0,0-1.468Z" transform="translate(-402.881 -72.13)" fill="#ac3b61"/>
  <path id="Path_38" data-name="Path 38" d="M449.337,109.585h-2.12a.734.734,0,0,0,0,1.468h2.12a.734.734,0,0,0,0-1.468Z" transform="translate(-402.881 -98.883)" fill="#ac3b61"/>
  <path id="Path_39" data-name="Path 39" d="M449.337,419.746h-2.12a.734.734,0,1,0,0,1.468h2.12a.734.734,0,0,0,0-1.468Z" transform="translate(-402.881 -378.755)" fill="#ac3b61"/>
  <path id="Path_40" data-name="Path 40" d="M449.337,449.394h-2.12a.734.734,0,1,0,0,1.468h2.12a.734.734,0,1,0,0-1.468Z" transform="translate(-402.881 -405.508)" fill="#ac3b61"/>
  <path id="Path_41" data-name="Path 41" d="M196.08,67.89a.734.734,0,0,0-.734-.734H180.233a.734.734,0,0,0,0,1.468h15.113A.734.734,0,0,0,196.08,67.89Z" transform="translate(-161.97 -60.598)" fill="#ac3b61"/>
  <path id="Path_42" data-name="Path 42" d="M219.033,102.995a.734.734,0,0,0-.734-.734h-9.542a.734.734,0,1,0,0,1.468H218.3A.734.734,0,0,0,219.033,102.995Z" transform="translate(-187.709 -92.275)" fill="#ac3b61"/>
</svg>
