<svg xmlns="http://www.w3.org/2000/svg" width="70" height="70.007" viewBox="0 0 70 70.007">
  <path id="home" d="M68.62,30.449l-.005-.005L40.057,1.887a6.444,6.444,0,0,0-9.115,0L2.4,30.429l-.029.029A6.442,6.442,0,0,0,6.66,41.439c.066.006.132.01.2.01H8V62.464a7.552,7.552,0,0,0,7.543,7.543H26.713a2.051,2.051,0,0,0,2.051-2.051V51.479a3.445,3.445,0,0,1,3.442-3.441H38.8a3.445,3.445,0,0,1,3.441,3.441V67.955a2.051,2.051,0,0,0,2.051,2.051H55.46A7.551,7.551,0,0,0,63,62.464V41.449h1.055a6.446,6.446,0,0,0,4.561-11Zm-2.9,6.211a2.328,2.328,0,0,1-1.657.687H60.952A2.051,2.051,0,0,0,58.9,39.4V62.464A3.445,3.445,0,0,1,55.46,65.9H46.338V51.479A7.552,7.552,0,0,0,38.8,43.936h-6.59a7.552,7.552,0,0,0-7.544,7.543V65.9H15.54A3.445,3.445,0,0,1,12.1,62.464V39.4a2.051,2.051,0,0,0-2.051-2.051H6.995l-.1,0a2.34,2.34,0,0,1-1.614-4h0l0,0L33.844,4.788a2.342,2.342,0,0,1,3.313,0l28.55,28.549.013.013a2.348,2.348,0,0,1,0,3.31Zm0,0" transform="translate(-0.5 0.001)" fill="#123c69"/>
</svg>
