<svg xmlns="http://www.w3.org/2000/svg" width="67.441" height="54.624" viewBox="0 0 67.441 54.624">
  <g id="Logout" transform="translate(9.879)">
    <g id="Group_16" data-name="Group 16" transform="translate(-9.879)">
      <path id="Path_16" data-name="Path 16" d="M22.3,28.142,44.821,15.137a1.141,1.141,0,0,0,0-1.977L22.3.153a1.142,1.142,0,0,0-1.713.989V7.2H1.142A1.142,1.142,0,0,0,0,8.339V19.955A1.142,1.142,0,0,0,1.142,21.1H20.586v6.055a1.144,1.144,0,0,0,1.712.991Z" transform="translate(45.392 41.458) rotate(180)" fill="#ac3b61"/>
      <path id="Path_17" data-name="Path 17" d="M62.435,0H39.168a1.142,1.142,0,0,0-1.142,1.142V4.568A1.142,1.142,0,0,0,39.168,5.71H62.435a2.727,2.727,0,0,1,2.724,2.724V46.19a2.727,2.727,0,0,1-2.724,2.724H39.168a1.142,1.142,0,0,0-1.142,1.142v3.426a1.142,1.142,0,0,0,1.142,1.142H62.435a8.443,8.443,0,0,0,8.434-8.434V8.435A8.444,8.444,0,0,0,62.435,0Z" transform="translate(-3.428)" fill="#ac3b61"/>
    </g>
  </g>
</svg>
