<svg xmlns="http://www.w3.org/2000/svg" width="19.496" height="19.25" viewBox="0 0 19.496 19.25">
  <g id="Group_33" data-name="Group 33" transform="translate(-244 -64.304)">
    <g id="Path_45" data-name="Path 45" transform="translate(244 64.304)" fill="none">
      <path d="M7.087,0A7.087,7.087,0,1,1,0,7.087,7.087,7.087,0,0,1,7.087,0Z" stroke="none"/>
      <path d="M 7.086854457855225 2.000000953674316 C 4.281954765319824 2.000000953674316 2.000004768371582 4.281961441040039 2.000004768371582 7.086861133575439 C 2.000004768371582 9.891761779785156 4.281954765319824 12.17372131347656 7.086854457855225 12.17372131347656 C 9.891754150390625 12.17372131347656 12.17370414733887 9.891761779785156 12.17370414733887 7.086861133575439 C 12.17370414733887 4.281961441040039 9.891754150390625 2.000000953674316 7.086854457855225 2.000000953674316 M 7.086854457855225 9.5367431640625e-07 C 11.00081443786621 9.5367431640625e-07 14.17370414733887 3.172901153564453 14.17370414733887 7.086861133575439 C 14.17370414733887 11.00082111358643 11.00081443786621 14.17372131347656 7.086854457855225 14.17372131347656 C 3.172894477844238 14.17372131347656 4.76837158203125e-06 11.00082111358643 4.76837158203125e-06 7.086861133575439 C 4.76837158203125e-06 3.172901153564453 3.172894477844238 9.5367431640625e-07 7.086854457855225 9.5367431640625e-07 Z" stroke="none" fill="#ac3b61"/>
    </g>
    <line id="Line_1" data-name="Line 1" x2="6.448" y2="6.438" transform="translate(255.634 75.702)" fill="none" stroke="#ac3b61" stroke-linecap="round" stroke-width="2"/>
  </g>
</svg>
